<?xml version="1.0" encoding="UTF-8"?>
<svg width="128px" height="128px" viewBox="0 0 128 128" version="1.1" xmlns="http://www.w3.org/2000/svg" xmlns:xlink="http://www.w3.org/1999/xlink">
    <!-- Generator: Sketch 56.2 (81672) - https://sketch.com -->
    <title>application-x-font-ttf</title>
    <desc>Created with Sketch.</desc>
    <defs>
        <linearGradient x1="50%" y1="0%" x2="50%" y2="99.372%" id="linearGradient-1">
            <stop stop-color="#D6D6D6" offset="0%"></stop>
            <stop stop-color="#AAAAAA" offset="98.276%"></stop>
        </linearGradient>
        <linearGradient x1="50%" y1="0%" x2="50%" y2="99.372%" id="linearGradient-2">
            <stop stop-color="#D6D6D6" offset="0%"></stop>
            <stop stop-color="#AAAAAA" offset="98.276%"></stop>
        </linearGradient>
        <linearGradient x1="50%" y1="50%" x2="10.489%" y2="91.194%" id="linearGradient-3">
            <stop stop-color="#FFFFFF" stop-opacity="0.1" offset="0%"></stop>
            <stop stop-color="#FFFFFF" stop-opacity="0.3" offset="100%"></stop>
        </linearGradient>
        <linearGradient x1="50%" y1="50%" x2="10.6688891%" y2="91.194%" id="linearGradient-4">
            <stop stop-color="#FFFFFF" stop-opacity="0.1" offset="0%"></stop>
            <stop stop-color="#FFFFFF" stop-opacity="0.3" offset="100%"></stop>
        </linearGradient>
    </defs>
    <g id="页面-1" stroke="none" stroke-width="1" fill="none" fill-rule="evenodd">
        <g id="按钮规范" transform="translate(-347.000000, -19.000000)">
            <g id="application-x-font-ttf" transform="translate(347.000000, 19.000000)">
                <rect id="矩形" x="0" y="0" width="128" height="128"></rect>
                <g id="编组" transform="translate(18.000000, 8.000000)" fill-rule="nonzero">
                    <g id="application-x-font-ttf-b-link" fill="#000000">
                        <path d="M62.8756074,0 L91.0612245,28.25 L91.0612245,103.221154 C91.0612245,108.621862 86.6930639,113 81.3046647,113 L9.75655977,113 C4.36816061,113 0,108.621862 0,103.221154 L0,9.77884615 C0,4.37813856 4.36816061,0 9.75655977,0 L62.8756074,0 Z" id="application-x-font-ttf-b"></path>
                    </g>
                    <g id="application-x-font-ttf-b-link" fill="url(#linearGradient-2)">
                        <path d="M62.8756074,0 L91.0612245,28.25 L91.0612245,103.221154 C91.0612245,108.621862 86.6930639,113 81.3046647,113 L9.75655977,113 C4.36816061,113 0,108.621862 0,103.221154 L0,9.77884615 C0,4.37813856 4.36816061,0 9.75655977,0 L62.8756074,0 Z" id="application-x-font-ttf-b"></path>
                    </g>
                    <g id="application-x-font-ttf-e-link" transform="translate(62.875607, 0.000000)" fill="#000000">
                        <path d="M0,0 L28.1856171,28.25 L9.75655977,28.25 C4.36816054,28.25 0,23.8718615 0,18.4711538 L0,0 Z" id="application-x-font-ttf-e"></path>
                    </g>
                    <g id="application-x-font-ttf-e-link" transform="translate(62.875607, 0.000000)" fill="url(#linearGradient-4)">
                        <path d="M0,0 L28.1856171,28.25 L9.75655977,28.25 C4.36816054,28.25 0,23.8718615 0,18.4711538 L0,0 Z" id="application-x-font-ttf-e"></path>
                    </g>
                </g>
                <path d="M76.7921846,110 L76.7921846,107.846154 C75.3268204,107.846154 77.6596802,107.846154 76.0595026,107.846154 C74.2131438,107.846154 72.3960923,106.786462 72.3960923,104.615385 L72.3960923,92.7692308 L76.7921846,92.7692308 L76.7921846,90.6211283 L72.3960923,90.6211283 L72.3960923,85.7692308 L70.1980461,85.7692308 L70.1980461,90.6211283 L68,90.6153846 L68,92.7692308 L70.1980461,92.7692308 L70.1980461,104.615385 C70.1980461,109.118359 73.4951154,110 76.0595026,110 C79.0957369,110 75.3268204,110 76.7921846,110 Z M87.7824153,110 L87.7824153,107.846154 C86.3170511,107.846154 88.6499109,107.846154 87.0497333,107.846154 C85.2033745,107.846154 83.386323,106.786462 83.386323,104.615385 L83.386323,92.7692308 L87.7824153,92.7692308 L87.7824153,90.6211283 L83.386323,90.6211283 L83.386323,85.7692308 L81.1882769,85.7692308 L81.1882769,90.6211283 L78.9902307,90.6211283 L78.9902307,92.7692308 L81.1882769,92.7692308 L81.1882769,104.615385 C81.1882769,109.118359 84.4853461,110 87.0497333,110 C90.0859676,110 86.3170511,110 87.7824153,110 Z M101,82 L98.0692719,82 C94.3765537,82 92.2078154,85.2307692 92.2078154,88.4615385 L92.2078154,90.6153846 L89.9804614,90.6153846 L89.9804614,92.7692308 L92.2078154,92.7692308 L92.2078154,110 L94.3765537,110 L94.3765537,92.7692308 L98.772646,92.7692308 L98.772646,90.6153846 L94.3765537,90.6153846 L94.3765537,88.4615385 C94.3765537,85.2307692 96.0587923,84.1538462 98.0692719,84.1538462 L101,84.1538462 L101,82 Z" id="形状" fill="#FFFFFF" fill-rule="nonzero"></path>
            </g>
        </g>
    </g>
</svg>