<?xml version="1.0" encoding="UTF-8"?>
<svg width="24px" height="24px" viewBox="0 0 24 24" version="1.1" xmlns="http://www.w3.org/2000/svg" xmlns:xlink="http://www.w3.org/1999/xlink">
    <title>apps/128/deepin-font-manager</title>
    <defs>
        <filter x="-10.3%" y="-5.1%" width="120.5%" height="120.5%" filterUnits="objectBoundingBox" id="filter-1">
            <feOffset dx="0" dy="1" in="SourceAlpha" result="shadowOffsetOuter1"></feOffset>
            <feGaussianBlur stdDeviation="0.5" in="shadowOffsetOuter1" result="shadowBlurOuter1"></feGaussianBlur>
            <feColorMatrix values="0 0 0 0 0   0 0 0 0 0   0 0 0 0 0  0 0 0 0.20036604 0" type="matrix" in="shadowBlurOuter1" result="shadowMatrixOuter1"></feColorMatrix>
            <feMerge>
                <feMergeNode in="shadowMatrixOuter1"></feMergeNode>
                <feMergeNode in="SourceGraphic"></feMergeNode>
            </feMerge>
        </filter>
        <linearGradient x1="54.6978306%" y1="-29.7079181%" x2="54.6978306%" y2="125.177825%" id="linearGradient-2">
            <stop stop-color="#DFA7FE" offset="0%"></stop>
            <stop stop-color="#591CDB" offset="100%"></stop>
        </linearGradient>
        <path d="M3.8458278,0 L15.6541722,2.26708535e-16 C16.9914503,-1.31724187e-16 17.4763797,0.139238417 17.9652686,0.400699056 C18.4541574,0.662159695 18.8378403,1.04584256 19.0993009,1.53473144 C19.3607616,2.02362033 19.5,2.50854969 19.5,3.8458278 L19.5,15.6541722 C19.5,16.9914503 19.3607616,17.4763797 19.0993009,17.9652686 C18.8378403,18.4541574 18.4541574,18.8378403 17.9652686,19.0993009 C17.4763797,19.3607616 16.9914503,19.5 15.6541722,19.5 L3.8458278,19.5 C2.50854969,19.5 2.02362033,19.3607616 1.53473144,19.0993009 C1.04584256,18.8378403 0.662159695,18.4541574 0.400699056,17.9652686 C0.139238417,17.4763797 0,16.9914503 0,15.6541722 L0,3.8458278 C0,2.50854969 0.139238417,2.02362033 0.400699056,1.53473144 C0.662159695,1.04584256 1.04584256,0.662159695 1.53473144,0.400699056 C2.02362033,0.139238417 2.50854969,0 3.8458278,0 Z" id="path-3"></path>
        <filter x="-10.3%" y="-10.3%" width="120.5%" height="120.5%" filterUnits="objectBoundingBox" id="filter-4">
            <feGaussianBlur stdDeviation="1.5" in="SourceAlpha" result="shadowBlurInner1"></feGaussianBlur>
            <feOffset dx="0" dy="-1" in="shadowBlurInner1" result="shadowOffsetInner1"></feOffset>
            <feComposite in="shadowOffsetInner1" in2="SourceAlpha" operator="arithmetic" k2="-1" k3="1" result="shadowInnerInner1"></feComposite>
            <feColorMatrix values="0 0 0 0 0.248208864   0 0 0 0 0.119317842   0 0 0 0 0.700317383  0 0 0 0.377446528 0" type="matrix" in="shadowInnerInner1"></feColorMatrix>
        </filter>
        <linearGradient x1="50%" y1="0%" x2="50%" y2="100%" id="linearGradient-5">
            <stop stop-color="#FFFFFF" stop-opacity="0.371988363" offset="0%"></stop>
            <stop stop-color="#000000" stop-opacity="0.2" offset="100%"></stop>
        </linearGradient>
        <linearGradient x1="48.4094489%" y1="23.8969655%" x2="48.4094489%" y2="100%" id="linearGradient-6">
            <stop stop-color="#FFFFFF" stop-opacity="0.370151333" offset="0%"></stop>
            <stop stop-color="#550000" stop-opacity="0.131315218" offset="100%"></stop>
        </linearGradient>
        <path d="M3.8458278,0 L15.6541722,2.26708535e-16 C16.9914503,-1.31724187e-16 17.4763797,0.139238417 17.9652686,0.400699056 C18.4541574,0.662159695 18.8378403,1.04584256 19.0993009,1.53473144 C19.3607616,2.02362033 19.5,2.50854969 19.5,3.8458278 L19.5,15.6541722 C19.5,16.9914503 19.3607616,17.4763797 19.0993009,17.9652686 C18.8378403,18.4541574 18.4541574,18.8378403 17.9652686,19.0993009 C17.4763797,19.3607616 16.9914503,19.5 15.6541722,19.5 L3.8458278,19.5 C2.50854969,19.5 2.02362033,19.3607616 1.53473144,19.0993009 C1.04584256,18.8378403 0.662159695,18.4541574 0.400699056,17.9652686 C0.139238417,17.4763797 0,16.9914503 0,15.6541722 L0,3.8458278 C0,2.50854969 0.139238417,2.02362033 0.400699056,1.53473144 C0.662159695,1.04584256 1.04584256,0.662159695 1.53473144,0.400699056 C2.02362033,0.139238417 2.50854969,0 3.8458278,0 Z" id="path-7"></path>
        <filter x="-7.7%" y="-7.7%" width="115.4%" height="115.4%" filterUnits="objectBoundingBox" id="filter-8">
            <feGaussianBlur stdDeviation="1" in="SourceAlpha" result="shadowBlurInner1"></feGaussianBlur>
            <feOffset dx="0" dy="-1" in="shadowBlurInner1" result="shadowOffsetInner1"></feOffset>
            <feComposite in="shadowOffsetInner1" in2="SourceAlpha" operator="arithmetic" k2="-1" k3="1" result="shadowInnerInner1"></feComposite>
            <feColorMatrix values="0 0 0 0 0.466747339   0 0 0 0 0.0214919006   0 0 0 0 0.0214919006  0 0 0 0.204917641 0" type="matrix" in="shadowInnerInner1"></feColorMatrix>
        </filter>
    </defs>
    <g id="apps/128/deepin-font-manager" stroke="none" fill="none">
        <g id="编组" filter="url(#filter-1)" stroke-width="1" fill-rule="evenodd" transform="translate(2.25, 2.25)">
            <g id="矩形">
                <use fill="url(#linearGradient-2)" fill-rule="evenodd" xlink:href="#path-3"></use>
                <use fill="black" fill-opacity="1" filter="url(#filter-4)" xlink:href="#path-3"></use>
            </g>
            <path d="M15.6541722,0 C16.9914503,0 17.4763797,0.139238417 17.9652686,0.400699056 C18.4541574,0.662159695 18.8378403,1.04584256 19.0993009,1.53473144 C19.3607616,2.02362033 19.5,2.50854969 19.5,3.8458278 L19.5,15.6541722 C19.5,16.9914503 19.3607616,17.4763797 19.0993009,17.9652686 C18.8378403,18.4541574 18.4541574,18.8378403 17.9652686,19.0993009 C17.4763797,19.3607616 16.9914503,19.5 15.6541722,19.5 L3.8458278,19.5 C2.50854969,19.5 2.02362033,19.3607616 1.53473144,19.0993009 C1.04584256,18.8378403 0.662159695,18.4541574 0.400699056,17.9652686 C0.139238417,17.4763797 0,16.9914503 0,15.6541722 L0,3.8458278 C0,2.50854969 0.139238417,2.02362033 0.400699056,1.53473144 C0.662159695,1.04584256 1.04584256,0.662159695 1.53473144,0.400699056 C2.02362033,0.139238417 2.50854969,0 3.8458278,0 L15.6541722,0 Z M3.8458278,0.1875 C2.65490874,0.1875 2.14788562,0.285410682 1.62315623,0.56603903 C1.16694268,0.810024707 0.810024707,1.16694268 0.56603903,1.62315623 C0.285410682,2.14788562 0.1875,2.65490874 0.1875,3.8458278 L0.1875,15.6541722 C0.1875,16.8450913 0.285410682,17.3521144 0.56603903,17.8768438 C0.810024707,18.3330573 1.16694268,18.6899753 1.62315623,18.933961 C2.14788562,19.2145893 2.65490874,19.3125 3.8458278,19.3125 L15.6541722,19.3125 C16.8450913,19.3125 17.3521144,19.2145893 17.8768438,18.933961 C18.3330573,18.6899753 18.6899753,18.3330573 18.933961,17.8768438 C19.2145893,17.3521144 19.3125,16.8450913 19.3125,15.6541722 L19.3125,3.8458278 C19.3125,2.65490874 19.2145893,2.14788562 18.933961,1.62315623 C18.6899753,1.16694268 18.3330573,0.810024707 17.8768438,0.56603903 C17.3521144,0.285410682 16.8450913,0.1875 15.6541722,0.1875 L3.8458278,0.1875 Z" id="矩形" fill="url(#linearGradient-5)" fill-rule="nonzero"></path>
            <path d="M15,0 L15.7361943,2.04724037e-16 C16.9750459,-1.27327288e-16 17.4763797,0.139238417 17.9652686,0.400699056 C18.4541574,0.662159695 18.8378403,1.04584256 19.0993009,1.53473144 C19.3607616,2.02362033 19.5,2.5249541 19.5,3.76380575 L19.5,15.7361943 C19.5,16.9750459 19.3607616,17.4763797 19.0993009,17.9652686 C18.8378403,18.4541574 18.4541574,18.8378403 17.9652686,19.0993009 C17.4763797,19.3607616 16.9750459,19.5 15.7361943,19.5 L15,19.5 L15,19.5 L15,0 Z" id="矩形" fill-opacity="0.7" fill="#FFFFFF"></path>
            <path d="M16.125,3.5625 L18.1875,3.5625 L18.1875,3.9375 L16.125,3.9375 L16.125,3.5625 Z M16.125,5.25 L18.1875,5.25 L18.1875,5.625 L16.125,5.625 L16.125,5.25 Z M16.125,6.9375 L18.1875,6.9375 L18.1875,7.3125 L16.125,7.3125 L16.125,6.9375 Z M16.125,8.625 L18.1875,8.625 L18.1875,9 L16.125,9 L16.125,8.625 Z M16.125,10.3125 L18.1875,10.3125 L18.1875,10.6875 L16.125,10.6875 L16.125,10.3125 Z M16.125,12 L18.1875,12 L18.1875,12.375 L16.125,12.375 L16.125,12 Z M16.125,13.6875 L18.1875,13.6875 L18.1875,14.0625 L16.125,14.0625 L16.125,13.6875 Z M16.125,15.375 L18.1875,15.375 L18.1875,15.75 L16.125,15.75 L16.125,15.375 Z" id="形状结合" fill="#A576EB" opacity="0.622206915"></path>
            <g id="矩形" fill-rule="nonzero">
                <use fill="black" fill-opacity="1" filter="url(#filter-8)" xlink:href="#path-7"></use>
                <path stroke="url(#linearGradient-6)" stroke-width="0.1875" d="M15.6541722,0.09375 C16.9649006,0.09375 17.44152,0.226910273 17.9210562,0.483369043 C18.3933657,0.735962962 18.764037,1.10663427 19.016631,1.57894384 C19.2730897,2.05848005 19.40625,2.53509943 19.40625,3.8458278 L19.40625,15.6541722 C19.40625,16.9649006 19.2730897,17.44152 19.016631,17.9210562 C18.764037,18.3933657 18.3933657,18.764037 17.9210562,19.016631 C17.44152,19.2730897 16.9649006,19.40625 15.6541722,19.40625 L3.8458278,19.40625 C2.53509943,19.40625 2.05848005,19.2730897 1.57894384,19.016631 C1.10663427,18.764037 0.735962962,18.3933657 0.483369043,17.9210562 C0.226910273,17.44152 0.09375,16.9649006 0.09375,15.6541722 L0.09375,3.8458278 C0.09375,2.53509943 0.226910273,2.05848005 0.483369043,1.57894384 C0.735962962,1.10663427 1.10663427,0.735962962 1.57894384,0.483369043 C2.05848005,0.226910273 2.53509943,0.09375 3.8458278,0.09375 Z" stroke-linejoin="square"></path>
            </g>
        </g>
        <path d="M6,18.1875 L6,17.9991848 C6.72487373,17.9991848 7.3125,17.4115585 7.3125,16.6866848 L7.3125,6.5625 L7.3125,6.5625 L5.8125,6.5625 L5.8125,6.375 L14.8125,6.375 L14.8125,9.375 L14.625,9.375 C14.625,7.82169914 13.3658009,6.5625 11.8125,6.5625 L9.1875,6.5625 L9.1875,6.5625 L9.1875,11.8125 L9.75,11.8125 C10.7855339,11.8125 11.625,10.9730339 11.625,9.9375 L11.625,9.9375 L11.625,9.9375 L11.8125,9.9375 L11.8125,14.4375 L11.625,14.4375 C11.625,13.2984127 10.7015873,12.375 9.5625,12.375 L9.1875,12.375 L9.1875,12.375 L9.1875,16.4991848 C9.1875,17.3276119 9.85907288,17.9991848 10.6875,17.9991848 L10.6875,17.9991848 L10.6875,17.9991848 L10.6875,18.1875 L6,18.1875 Z" id="F" fill="#FFFFFF" fill-rule="nonzero"></path>
    </g>
</svg>